<svg width="68" height="20" viewBox="0 0 68 20" fill="none" xmlns="http://www.w3.org/2000/svg">
<path d="M7.632 19.364C5.37867 19.364 3.59333 18.74 2.276 17.492C0.958667 16.2267 0.3 14.424 0.3 12.084V7.716C0.3 5.376 0.958667 3.582 2.276 2.334C3.59333 1.06867 5.37867 0.435999 7.632 0.435999C9.868 0.435999 11.5927 1.05133 12.806 2.282C14.0367 3.49533 14.652 5.168 14.652 7.3V7.456H11.272V7.196C11.272 6.12133 10.9687 5.23733 10.362 4.544C9.77267 3.85067 8.86267 3.504 7.632 3.504C6.41867 3.504 5.46533 3.87667 4.772 4.622C4.07867 5.36733 3.732 6.38133 3.732 7.664V12.136C3.732 13.4013 4.07867 14.4153 4.772 15.178C5.46533 15.9233 6.41867 16.296 7.632 16.296C8.86267 16.296 9.77267 15.9493 10.362 15.256C10.9687 14.5453 11.272 13.6613 11.272 12.604V12.136H14.652V12.5C14.652 14.632 14.0367 16.3133 12.806 17.544C11.5927 18.7573 9.868 19.364 7.632 19.364ZM17.4484 19V0.799999H29.1484V3.92H20.8804V8.262H28.4204V11.382H20.8804V15.88H29.3044V19H17.4484ZM31.8449 19V0.799999H38.2149L41.3609 16.66H41.8289L44.9749 0.799999H51.3449V19H48.0169V3.322H47.5489L44.4289 19H38.7609L35.6409 3.322H35.1729V19H31.8449ZM61.0906 19.364C59.6866 19.364 58.4473 19.1127 57.3726 18.61C56.298 18.1073 55.4573 17.388 54.8506 16.452C54.244 15.516 53.9406 14.3893 53.9406 13.072V12.344H57.3206V13.072C57.3206 14.164 57.6586 14.9873 58.3346 15.542C59.0106 16.0793 59.9293 16.348 61.0906 16.348C62.2693 16.348 63.1446 16.114 63.7166 15.646C64.306 15.178 64.6006 14.58 64.6006 13.852C64.6006 13.3493 64.4533 12.942 64.1586 12.63C63.8813 12.318 63.4653 12.0667 62.9106 11.876C62.3733 11.668 61.7146 11.4773 60.9346 11.304L60.3366 11.174C59.0886 10.8967 58.014 10.55 57.1126 10.134C56.2286 9.70067 55.544 9.13733 55.0586 8.444C54.5906 7.75067 54.3566 6.84933 54.3566 5.74C54.3566 4.63067 54.6166 3.686 55.1366 2.906C55.674 2.10867 56.4193 1.502 57.3726 1.086C58.3433 0.652666 59.4786 0.435999 60.7786 0.435999C62.0786 0.435999 63.2313 0.661332 64.2366 1.112C65.2593 1.54533 66.0566 2.204 66.6286 3.088C67.218 3.95467 67.5126 5.04667 67.5126 6.364V7.144H64.1326V6.364C64.1326 5.67067 63.994 5.116 63.7166 4.7C63.4566 4.26667 63.0753 3.95467 62.5726 3.764C62.07 3.556 61.472 3.452 60.7786 3.452C59.7386 3.452 58.9673 3.65133 58.4646 4.05C57.9793 4.43133 57.7366 4.96 57.7366 5.636C57.7366 6.08667 57.8493 6.468 58.0746 6.78C58.3173 7.092 58.6726 7.352 59.1406 7.56C59.6086 7.768 60.2066 7.95 60.9346 8.106L61.5326 8.236C62.8326 8.51333 63.9593 8.86867 64.9126 9.302C65.8833 9.73533 66.6373 10.3073 67.1746 11.018C67.712 11.7287 67.9806 12.6387 67.9806 13.748C67.9806 14.8573 67.6946 15.8367 67.1226 16.686C66.568 17.518 65.7706 18.1767 64.7306 18.662C63.708 19.13 62.4946 19.364 61.0906 19.364Z" fill="#1AB1BA"/>
</svg>
